<svg width="44" height="13" viewBox="0 0 44 13" fill="none" xmlns="http://www.w3.org/2000/svg">
<path d="M2.94 10C1.44667 10 0.7 9.25333 0.7 7.76V1.04C0.7 0.76 0.84 0.62 1.12 0.62H4.97C5.25 0.62 5.39 0.76 5.39 1.04V1.628C5.39 1.908 5.25 2.048 4.97 2.048H2.282V4.484H4.41C4.69 4.484 4.83 4.624 4.83 4.904V5.492C4.83 5.772 4.69 5.912 4.41 5.912H2.282V7.536C2.282 7.9 2.35667 8.166 2.506 8.334C2.65533 8.49267 2.968 8.572 3.444 8.572H5.082C5.362 8.572 5.502 8.712 5.502 8.992V9.58C5.502 9.86 5.362 10 5.082 10H2.94ZM6.28884 10C6.09284 10 5.99484 9.92533 5.99484 9.776C5.99484 9.71067 6.01351 9.64533 6.05084 9.58L7.88484 6.402L6.23284 3.504C6.17684 3.42 6.14884 3.34067 6.14884 3.266C6.14884 3.182 6.17684 3.11667 6.23284 3.07C6.29818 3.02333 6.38218 3 6.48484 3H7.31084C7.58151 3 7.78218 3.12133 7.91284 3.364L8.66884 4.834C8.72484 4.95533 8.78551 5.016 8.85084 5.016C8.89751 5.016 8.95351 4.95533 9.01884 4.834L9.77484 3.364C9.90551 3.12133 10.1062 3 10.3768 3H11.0628C11.1655 3 11.2448 3.02333 11.3008 3.07C11.3662 3.11667 11.3988 3.182 11.3988 3.266C11.3988 3.34067 11.3708 3.42 11.3148 3.504L9.66284 6.402L11.4968 9.58C11.5342 9.64533 11.5528 9.71067 11.5528 9.776C11.5528 9.92533 11.4548 10 11.2588 10H10.3768C10.1995 10 10.0688 9.986 9.98484 9.958C9.90084 9.92067 9.82151 9.832 9.74684 9.692L8.87884 7.886C8.84151 7.81133 8.81351 7.76467 8.79484 7.746C8.77618 7.718 8.74351 7.704 8.69684 7.704C8.63151 7.704 8.57084 7.76467 8.51484 7.886L7.66084 9.692C7.59551 9.82267 7.51618 9.90667 7.42284 9.944C7.33884 9.98133 7.20818 10 7.03084 10H6.28884ZM13.0162 12.422C12.7362 12.422 12.5962 12.282 12.5962 12.002V4.498C12.5962 4.05933 12.6662 3.75133 12.8062 3.574C12.9462 3.38733 13.1515 3.24267 13.4222 3.14C13.5435 3.09333 13.6835 3.05133 13.8422 3.014C14.0102 2.97667 14.1735 2.94867 14.3322 2.93C14.4908 2.902 14.6448 2.88333 14.7942 2.874C14.9528 2.86467 15.0882 2.86 15.2002 2.86C16.0775 2.86 16.7355 3.12133 17.1742 3.644C17.6222 4.16667 17.8462 4.93667 17.8462 5.954V7.06C17.8462 8.07733 17.6175 8.84733 17.1602 9.37C16.7028 9.88333 16.0355 10.14 15.1582 10.14C14.9995 10.14 14.8362 10.1307 14.6682 10.112C14.5095 10.0933 14.3462 10.07 14.1782 10.042V12.002C14.1782 12.282 14.0382 12.422 13.7582 12.422H13.0162ZM15.1862 8.712C15.8862 8.712 16.2362 8.362 16.2362 7.662V5.352C16.2362 4.64267 15.8908 4.288 15.2002 4.288C15.0415 4.288 14.8968 4.29267 14.7662 4.302C14.6448 4.31133 14.5235 4.33467 14.4022 4.372C14.3182 4.39067 14.2575 4.43267 14.2202 4.498C14.1922 4.554 14.1782 4.652 14.1782 4.792V8.222C14.1782 8.362 14.1922 8.46467 14.2202 8.53C14.2575 8.586 14.3182 8.62333 14.4022 8.642C14.5235 8.67933 14.6495 8.70267 14.7802 8.712C14.9108 8.712 15.0462 8.712 15.1862 8.712ZM21.428 8.712C22.128 8.712 22.478 8.362 22.478 7.662V5.352C22.478 4.64267 22.1467 4.288 21.484 4.288C20.784 4.288 20.434 4.638 20.434 5.338V7.648C20.434 8.35733 20.7653 8.712 21.428 8.712ZM21.4 10.14C20.56 10.14 19.9207 9.88333 19.482 9.37C19.0433 8.84733 18.824 8.07733 18.824 7.06V5.94C18.824 4.932 19.0527 4.16667 19.51 3.644C19.9673 3.12133 20.6347 2.86 21.512 2.86C22.352 2.86 22.9913 3.12133 23.43 3.644C23.8687 4.16667 24.088 4.93667 24.088 5.954V7.06C24.088 8.07733 23.8593 8.84733 23.402 9.37C22.9447 9.88333 22.2773 10.14 21.4 10.14ZM25.772 10C25.492 10 25.352 9.86 25.352 9.58V4.498C25.352 4.05933 25.422 3.75133 25.562 3.574C25.702 3.38733 25.9074 3.24267 26.178 3.14C26.43 3.03733 26.7007 2.96733 26.99 2.93C27.2794 2.88333 27.5594 2.86 27.83 2.86C28.2127 2.86 28.4694 2.89733 28.6 2.972C28.74 3.04667 28.81 3.21 28.81 3.462V4.022C28.81 4.29267 28.67 4.428 28.39 4.428H27.83C27.6994 4.428 27.5734 4.43267 27.452 4.442C27.3307 4.45133 27.228 4.47 27.144 4.498C27.06 4.526 27.004 4.568 26.976 4.624C26.948 4.68 26.934 4.778 26.934 4.918V9.58C26.934 9.86 26.794 10 26.514 10H25.772ZM29.5034 4.344C29.2234 4.344 29.0834 4.204 29.0834 3.924V3.42C29.0834 3.14 29.2234 3 29.5034 3H29.9514V2.02C29.9514 1.74 30.0914 1.6 30.3714 1.6H31.1134C31.3934 1.6 31.5334 1.74 31.5334 2.02V3H32.4854C32.7654 3 32.9054 3.14 32.9054 3.42V3.924C32.9054 4.204 32.7654 4.344 32.4854 4.344H31.5334V8.292C31.5334 8.572 31.6734 8.712 31.9534 8.712H32.4854C32.7654 8.712 32.9054 8.852 32.9054 9.132V9.286C32.9054 9.85533 32.4527 10.14 31.5474 10.14C31.23 10.14 30.9687 10.098 30.7634 10.014C30.558 9.93933 30.3947 9.82267 30.2734 9.664C30.152 9.50533 30.068 9.30467 30.0214 9.062C29.9747 8.81 29.9514 8.516 29.9514 8.18V4.344H29.5034ZM36.4749 10.14C35.4203 10.14 34.6643 9.88333 34.2069 9.37C33.7589 8.85667 33.5349 8.08667 33.5349 7.06V5.94C33.5349 4.96 33.7729 4.204 34.2489 3.672C34.7249 3.13067 35.3689 2.86 36.1809 2.86C36.9743 2.86 37.5903 3.098 38.0289 3.574C38.4769 4.05 38.7009 4.69867 38.7009 5.52V6.122C38.7009 6.346 38.6869 6.528 38.6589 6.668C38.6309 6.808 38.5749 6.91533 38.4909 6.99C38.4163 7.06467 38.3136 7.116 38.1829 7.144C38.0523 7.172 37.8889 7.186 37.6929 7.186H35.1449V7.606C35.1449 7.942 35.2289 8.21267 35.3969 8.418C35.5743 8.614 35.8963 8.712 36.3629 8.712H38.0429C38.3229 8.712 38.4629 8.852 38.4629 9.132V9.286C38.4629 9.454 38.4303 9.594 38.3649 9.706C38.3089 9.80867 38.2016 9.89267 38.0429 9.958C37.8936 10.0233 37.6883 10.07 37.4269 10.098C37.1749 10.126 36.8576 10.14 36.4749 10.14ZM35.1449 5.982H36.8389C36.9603 5.982 37.0349 5.96333 37.0629 5.926C37.1003 5.88867 37.1189 5.8 37.1189 5.66V5.352C37.1189 4.99733 37.0349 4.73133 36.8669 4.554C36.6989 4.37667 36.4656 4.288 36.1669 4.288C35.4856 4.288 35.1449 4.64267 35.1449 5.352V5.982ZM40.3052 10C40.0252 10 39.8852 9.86 39.8852 9.58V4.498C39.8852 4.05933 39.9552 3.75133 40.0952 3.574C40.2352 3.38733 40.4406 3.24267 40.7112 3.14C40.9632 3.03733 41.2339 2.96733 41.5232 2.93C41.8126 2.88333 42.0926 2.86 42.3632 2.86C42.7459 2.86 43.0026 2.89733 43.1332 2.972C43.2732 3.04667 43.3432 3.21 43.3432 3.462V4.022C43.3432 4.29267 43.2032 4.428 42.9232 4.428H42.3632C42.2326 4.428 42.1066 4.43267 41.9852 4.442C41.8639 4.45133 41.7612 4.47 41.6772 4.498C41.5932 4.526 41.5372 4.568 41.5092 4.624C41.4812 4.68 41.4672 4.778 41.4672 4.918V9.58C41.4672 9.86 41.3272 10 41.0472 10H40.3052Z" fill="white"/>
</svg>
